<svg xmlns="http://www.w3.org/2000/svg" viewBox="0 0 600 600" width="28" height="28"><defs><style>.a{fill:#724df1;}.b{fill:rgba(255,255,255,0);opacity:0;}</style></defs><title>DiviGear</title><path class="a" d="M438.56,166.2H347l-.09,90h91.65q20.08,0,20.09,22.51v180q0,22.5-20.09,22.5H237.68l40.17,90H438.56Q539,571.28,539,458.76v-180Q539,166.19,438.56,166.2Z"/><path class="a" d="M241,60.17a162.94,162.94,0,0,0-27.1,2.6l-5.26-28.26A179.2,179.2,0,0,0,161.93,50l12.69,25.73a151.41,151.41,0,0,0-22.71,13.83l-17-23.15a181.13,181.13,0,0,0-35.23,34.13l22.6,17.74a151.75,151.75,0,0,0-14.55,22.25L82.4,127.05a179.65,179.65,0,0,0-17,46.14l28.07,6.14a151.55,151.55,0,0,0-3.4,26.38l-28.69-1.14A182.71,182.71,0,0,0,66,253.36l28-6.59A151.38,151.38,0,0,0,102.33,272L76,283.43a180.45,180.45,0,0,0,25.45,42l22.32-18.09a152.24,152.24,0,0,0,18.47,19.1l-18.84,21.69A180.69,180.69,0,0,0,164.49,375l12.28-25.94a150.59,150.59,0,0,0,24.95,9.18L194.18,386a180.42,180.42,0,0,0,48.24,6.3l1.05,0-.86-28.67a153.4,153.4,0,0,0,26.52-2.53l5.18,28.26a179.34,179.34,0,0,0,46.7-15.4l-12.64-25.76a152.82,152.82,0,0,0,22.74-13.79l17,23.18a181.27,181.27,0,0,0,35.28-34.05L360.8,305.7a151.82,151.82,0,0,0,14.61-22.22L400.69,297a179.33,179.33,0,0,0,17.09-46.12l-28-6.2a152.31,152.31,0,0,0,3.46-26.36l28.8,1.2c.12-2.83.28-5.71.27-8.55v0a181,181,0,0,0-4.8-40.24l-28.1,6.56A150.52,150.52,0,0,0,381.07,152l26.36-11.33a180.59,180.59,0,0,0-25.37-42l-22.36,18a152.25,152.25,0,0,0-18.43-19.14l18.88-21.66a180.29,180.29,0,0,0-41-26.94l-12.33,25.9a150.36,150.36,0,0,0-25-9.25L289.41,37c-15.79-4.33-32.16-7.34-48.66-7.26h.07Zm98.6,151.23a97.49,97.49,0,0,1-12.38,48.13l-48.42-25a43.41,43.41,0,0,0-23.57-63.93l20-50.69A98,98,0,0,1,339.57,211.4ZM241,114l.39,54.42A43.44,43.44,0,0,0,199,220.26l-53.7,9A97.9,97.9,0,0,1,241,114Zm64.92,171.81a97.89,97.89,0,0,1-149.15-25.08L204.81,235a43.39,43.39,0,0,0,63.78,11Z"/><path class="b" d="M241.84,255.39a43.42,43.42,0,0,1-37-20.41l-48.08,25.7a97.89,97.89,0,0,0,149.15,25.08L268.59,246A43.32,43.32,0,0,1,241.84,255.39Z"/><path class="b" d="M145.25,229.21l53.7-9a43.44,43.44,0,0,1,42.4-51.89L241,114a97.9,97.9,0,0,0-95.71,115.26Z"/><path class="b" d="M275.22,119.86l-20,50.69a43.41,43.41,0,0,1,23.57,63.93l48.42,25a97.95,97.95,0,0,0-52-139.67Z"/></svg>